<svg xmlns="http://www.w3.org/2000/svg" version="1.1" xmlns:xlink="http://www.w3.org/1999/xlink" xmlns:svgjs="http://svgjs.dev/svgjs" viewBox="0 0 800 800"><circle r="7.5" cx="337" cy="420" stroke-width="2" stroke="hsl(201, 50%, 50%)" fill="none" opacity="0.32"></circle><circle r="8" cx="282" cy="675" stroke-width="2" stroke="hsl(178, 50%, 50%)" fill="none" opacity="0.58"></circle><circle r="7" cx="788" cy="586" fill="hsl(224, 50%, 50%)" opacity="0.51"></circle><circle r="5.5" cx="650" cy="72" stroke-width="2" stroke="hsl(157, 50%, 50%)" fill="none" opacity="0.43"></circle><circle r="10" cx="703" cy="529" stroke-width="2" stroke="hsl(158, 50%, 50%)" fill="none" opacity="0.12"></circle><circle r="8" cx="768" cy="234" fill="hsl(204, 50%, 50%)" opacity="0.92"></circle><circle r="14.5" cx="29" cy="527" stroke-width="2" stroke="hsl(187, 50%, 50%)" fill="none" opacity="0.23"></circle><circle r="4" cx="106" cy="755" fill="hsl(161, 50%, 50%)" opacity="0.77"></circle><circle r="8.5" cx="79" cy="231" stroke-width="2" stroke="hsl(169, 50%, 50%)" fill="none" opacity="0.88"></circle><circle r="7.5" cx="95" cy="524" fill="hsl(165, 50%, 50%)" opacity="0.81"></circle><circle r="6" cx="204" cy="88" stroke-width="2" stroke="hsl(152, 50%, 50%)" fill="none" opacity="0.26"></circle><circle r="12.5" cx="439" cy="515" fill="hsl(231, 50%, 50%)" opacity="0.68"></circle><circle r="5.5" cx="770" cy="690" fill="hsl(204, 50%, 50%)" opacity="0.23"></circle><circle r="4" cx="140" cy="790" fill="hsl(152, 50%, 50%)" opacity="0.60"></circle><circle r="11" cx="387" cy="631" stroke-width="2" stroke="hsl(222, 50%, 50%)" fill="none" opacity="0.97"></circle><circle r="6" cx="786" cy="539" fill="hsl(214, 50%, 50%)" opacity="0.29"></circle><circle r="7" cx="492" cy="104" fill="hsl(163, 50%, 50%)" opacity="0.59"></circle><circle r="8" cx="252" cy="538" fill="hsl(167, 50%, 50%)" opacity="0.40"></circle><circle r="6" cx="246" cy="94" fill="hsl(162, 50%, 50%)" opacity="0.29"></circle><circle r="9.5" cx="192" cy="336" stroke-width="2" stroke="hsl(150, 50%, 50%)" fill="none" opacity="0.39"></circle><circle r="6.5" cx="267" cy="777" fill="hsl(172, 50%, 50%)" opacity="0.76"></circle><circle r="5.5" cx="628" cy="783" stroke-width="2" stroke="hsl(137, 50%, 50%)" fill="none" opacity="0.92"></circle><circle r="5.5" cx="362" cy="196" stroke-width="2" stroke="hsl(212, 50%, 50%)" fill="none" opacity="0.70"></circle><circle r="4.5" cx="158" cy="720" stroke-width="2" stroke="hsl(150, 50%, 50%)" fill="none" opacity="0.25"></circle><circle r="6" cx="270" cy="78" stroke-width="2" stroke="hsl(165, 50%, 50%)" fill="none" opacity="0.59"></circle><circle r="9.5" cx="162" cy="290" fill="hsl(150, 50%, 50%)" opacity="0.52"></circle><circle r="11.5" cx="410" cy="381" stroke-width="2" stroke="hsl(228, 50%, 50%)" fill="none" opacity="0.18"></circle><circle r="10" cx="516" cy="444" fill="hsl(198, 50%, 50%)" opacity="0.99"></circle><circle r="6" cx="588" cy="187" fill="hsl(147, 50%, 50%)" opacity="0.51"></circle><circle r="3.5" cx="236" cy="9" fill="hsl(150, 50%, 50%)" opacity="0.24"></circle><circle r="7" cx="488" cy="176" fill="hsl(207, 50%, 50%)" opacity="0.59"></circle><circle r="8.5" cx="663" cy="322" stroke-width="2" stroke="hsl(141, 50%, 50%)" fill="none" opacity="0.65"></circle><circle r="6" cx="339" cy="671" stroke-width="2" stroke="hsl(207, 50%, 50%)" fill="none" opacity="0.58"></circle><circle r="6.5" cx="90" cy="184" stroke-width="2" stroke="hsl(165, 50%, 50%)" fill="none" opacity="0.82"></circle><circle r="6" cx="364" cy="685" stroke-width="2" stroke="hsl(217, 50%, 50%)" fill="none" opacity="0.93"></circle><circle r="5" cx="239" cy="131" stroke-width="2" stroke="hsl(166, 50%, 50%)" fill="none" opacity="0.70"></circle><circle r="7" cx="352" cy="775" fill="hsl(212, 50%, 50%)" opacity="0.50"></circle><circle r="6" cx="149" cy="143" fill="hsl(150, 50%, 50%)" opacity="0.45"></circle><circle r="10.5" cx="414" cy="736" stroke-width="2" stroke="hsl(230, 50%, 50%)" fill="none" opacity="0.21"></circle><circle r="8" cx="582" cy="774" fill="hsl(155, 50%, 50%)" opacity="0.83"></circle><circle r="6" cx="368" cy="307" stroke-width="2" stroke="hsl(217, 50%, 50%)" fill="none" opacity="1.00"></circle><circle r="8.5" cx="179" cy="473" fill="hsl(149, 50%, 50%)" opacity="0.85"></circle><circle r="7" cx="685" cy="99" fill="hsl(160, 50%, 50%)" opacity="0.99"></circle><circle r="7.5" cx="502" cy="214" fill="hsl(206, 50%, 50%)" opacity="0.94"></circle><circle r="6" cx="121" cy="550" fill="hsl(157, 50%, 50%)" opacity="0.84"></circle><circle r="9.5" cx="371" cy="736" fill="hsl(217, 50%, 50%)" opacity="0.80"></circle><circle r="9.5" cx="641" cy="371" stroke-width="2" stroke="hsl(136, 50%, 50%)" fill="none" opacity="0.45"></circle><circle r="11" cx="422" cy="273" fill="hsl(230, 50%, 50%)" opacity="0.24"></circle><circle r="7.5" cx="635" cy="19" fill="hsl(161, 50%, 50%)" opacity="0.19"></circle><circle r="6.5" cx="541" cy="263" fill="hsl(180, 50%, 50%)" opacity="0.46"></circle><circle r="11" cx="740" cy="272" stroke-width="2" stroke="hsl(184, 50%, 50%)" fill="none" opacity="0.79"></circle><circle r="10" cx="440" cy="300" stroke-width="2" stroke="hsl(231, 50%, 50%)" fill="none" opacity="0.83"></circle></svg>